<svg width="22" height="22" viewBox="0 0 22 22" fill="none" xmlns="http://www.w3.org/2000/svg">
<path d="M18.025 9.625V9.475H17.875H16.5H16.35V9.625V11.6875V11.6875C16.35 11.9096 16.4383 12.1226 16.5954 12.2796C16.5954 12.2796 16.5954 12.2796 16.5954 12.2796L18.4125 14.0968V14.975H3.5875V14.0968L5.40461 12.2796C5.56169 12.1226 5.64995 11.9096 5.65 11.6875V11.6875L5.65 8.9375L5.65 8.9372C5.64814 7.99752 5.89428 7.07399 6.36358 6.25988C6.83287 5.44577 7.50869 4.76993 8.32278 4.30061C9.13687 3.83128 10.0604 3.5851 11.0001 3.58694C11.9398 3.58877 12.8623 3.83854 13.6746 4.31103L13.9 4.44216V4.18137V2.64481V2.54718L13.8107 2.50766C13.1832 2.22981 12.5182 2.04649 11.8375 1.96345V0.6875V0.5375H11.6875H10.3125H10.1625V0.6875V1.96268C8.48224 2.16647 6.93001 2.96968 5.79257 4.22718C4.62478 5.51824 3.97718 7.19646 3.975 8.93731V8.9375V11.3407L2.15789 13.1579C2.00081 13.3149 1.91255 13.5279 1.9125 13.75V13.75V15.8125C1.9125 16.0346 2.00074 16.2476 2.1578 16.4047C2.31486 16.5618 2.52788 16.65 2.75 16.65H7.4125V17.1875C7.4125 18.139 7.79047 19.0515 8.46325 19.7242C9.13604 20.397 10.0485 20.775 11 20.775C11.9515 20.775 12.864 20.397 13.5367 19.7242C14.2095 19.0515 14.5875 18.139 14.5875 17.1875V16.65H19.25C19.4721 16.65 19.6851 16.5618 19.8422 16.4047C19.9993 16.2476 20.0875 16.0346 20.0875 15.8125V13.75V13.75C20.0875 13.5279 19.9992 13.3149 19.8421 13.1579L18.025 11.3407V9.625ZM12.9125 17.1875C12.9125 17.6947 12.711 18.1812 12.3523 18.5398C11.9937 18.8985 11.5072 19.1 11 19.1C10.4928 19.1 10.0063 18.8985 9.64766 18.5398C9.28899 18.1812 9.0875 17.6947 9.0875 17.1875V16.65H12.9125V17.1875Z" fill="white" stroke="white" stroke-width="0.3"/>
<path d="M17.875 8.25C19.3938 8.25 20.625 7.01878 20.625 5.5C20.625 3.98122 19.3938 2.75 17.875 2.75C16.3562 2.75 15.125 3.98122 15.125 5.5C15.125 7.01878 16.3562 8.25 17.875 8.25Z" fill="white"/>
</svg>
