<svg width="290" height="41" viewBox="0 0 290 41" fill="none" xmlns="http://www.w3.org/2000/svg">
<path d="M3.91195 28.672C4.47195 28.672 4.96395 28.772 5.38795 28.972C5.81195 29.172 6.16395 29.452 6.44395 29.812C6.73195 30.172 6.94795 30.6 7.09195 31.096C7.23595 31.592 7.30795 32.132 7.30795 32.716C7.30795 33.412 7.21995 34.036 7.04395 34.588C6.86795 35.14 6.61595 35.608 6.28795 35.992C5.96795 36.368 5.57595 36.66 5.11195 36.868C4.65595 37.068 4.13995 37.168 3.56395 37.168C2.90795 37.168 2.34395 37.032 1.87195 36.76C1.40795 36.48 1.04795 36.148 0.791953 35.764L1.83595 34.828C2.01195 35.1 2.24795 35.324 2.54395 35.5C2.83995 35.668 3.17995 35.752 3.56395 35.752C4.13995 35.752 4.61995 35.564 5.00395 35.188C5.39595 34.812 5.63195 34.252 5.71195 33.508C5.46395 33.78 5.16795 34.004 4.82395 34.18C4.47995 34.348 4.07195 34.432 3.59995 34.432C3.21595 34.432 2.85195 34.364 2.50795 34.228C2.16395 34.092 1.85995 33.9 1.59595 33.652C1.33195 33.404 1.12395 33.108 0.971953 32.764C0.819953 32.412 0.743953 32.02 0.743953 31.588C0.743953 31.156 0.827953 30.764 0.995953 30.412C1.16395 30.052 1.39195 29.744 1.67995 29.488C1.96795 29.232 2.30395 29.032 2.68795 28.888C3.07195 28.744 3.47995 28.672 3.91195 28.672ZM3.91195 30.088C3.66395 30.088 3.43995 30.128 3.23995 30.208C3.04795 30.288 2.87995 30.396 2.73595 30.532C2.59995 30.66 2.49595 30.812 2.42395 30.988C2.35195 31.164 2.31595 31.352 2.31595 31.552C2.31595 31.752 2.35195 31.944 2.42395 32.128C2.49595 32.304 2.59995 32.46 2.73595 32.596C2.87995 32.724 3.04795 32.828 3.23995 32.908C3.43995 32.988 3.66395 33.028 3.91195 33.028C4.15995 33.028 4.37995 32.988 4.57195 32.908C4.77195 32.828 4.93995 32.724 5.07595 32.596C5.21195 32.46 5.31595 32.304 5.38795 32.128C5.45995 31.944 5.49595 31.752 5.49595 31.552C5.49595 31.352 5.45995 31.164 5.38795 30.988C5.31595 30.812 5.21195 30.66 5.07595 30.532C4.93995 30.396 4.77195 30.288 4.57195 30.208C4.37995 30.128 4.15995 30.088 3.91195 30.088ZM19.521 33.532C19.521 33.036 19.413 32.664 19.197 32.416C18.989 32.16 18.657 32.032 18.201 32.032C18.009 32.032 17.837 32.064 17.685 32.128C17.533 32.184 17.401 32.264 17.289 32.368C17.177 32.464 17.081 32.576 17.001 32.704C16.929 32.832 16.873 32.968 16.833 33.112V37H15.309V33.532C15.309 32.532 14.869 32.032 13.989 32.032C13.605 32.032 13.301 32.144 13.077 32.368C12.853 32.584 12.701 32.832 12.621 33.112V37H11.097V30.82H12.621V31.684C12.789 31.404 13.029 31.168 13.341 30.976C13.653 30.776 14.049 30.676 14.529 30.676C15.041 30.676 15.461 30.78 15.789 30.988C16.117 31.196 16.365 31.484 16.533 31.852C16.765 31.476 17.057 31.188 17.409 30.988C17.769 30.78 18.213 30.676 18.741 30.676C19.141 30.676 19.485 30.744 19.773 30.88C20.069 31.008 20.309 31.192 20.493 31.432C20.685 31.664 20.825 31.948 20.913 32.284C21.001 32.612 21.045 32.972 21.045 33.364V37H19.521V33.532ZM26.9893 36.292C26.7573 36.548 26.4773 36.756 26.1493 36.916C25.8293 37.068 25.4653 37.144 25.0573 37.144C24.6253 37.144 24.2253 37.068 23.8573 36.916C23.4973 36.764 23.1853 36.548 22.9213 36.268C22.6573 35.98 22.4493 35.64 22.2973 35.248C22.1533 34.848 22.0813 34.404 22.0813 33.916C22.0813 33.428 22.1533 32.984 22.2973 32.584C22.4493 32.184 22.6573 31.844 22.9213 31.564C23.1853 31.284 23.4973 31.068 23.8573 30.916C24.2253 30.756 24.6253 30.676 25.0573 30.676C25.4653 30.676 25.8293 30.756 26.1493 30.916C26.4773 31.076 26.7573 31.284 26.9893 31.54V30.82H28.5133V37H26.9893V36.292ZM25.3933 35.788C25.7373 35.788 26.0533 35.708 26.3413 35.548C26.6373 35.38 26.8533 35.152 26.9893 34.864V32.968C26.8533 32.672 26.6373 32.444 26.3413 32.284C26.0533 32.116 25.7373 32.032 25.3933 32.032C25.1453 32.032 24.9133 32.076 24.6973 32.164C24.4813 32.244 24.2933 32.364 24.1333 32.524C23.9813 32.684 23.8573 32.884 23.7613 33.124C23.6733 33.356 23.6293 33.62 23.6293 33.916C23.6293 34.212 23.6733 34.476 23.7613 34.708C23.8573 34.94 23.9813 35.136 24.1333 35.296C24.2933 35.456 24.4813 35.58 24.6973 35.668C24.9133 35.748 25.1453 35.788 25.3933 35.788ZM31.7641 36.208L29.2921 30.82H30.9241L32.5681 34.516L34.0921 30.82H35.7361L32.1121 39.076H30.4681L31.7641 36.208Z" fill="#404040"/>
<path d="M87.662 28.672C88.222 28.672 88.714 28.772 89.138 28.972C89.562 29.172 89.914 29.452 90.194 29.812C90.482 30.172 90.698 30.6 90.842 31.096C90.986 31.592 91.058 32.132 91.058 32.716C91.058 33.412 90.97 34.036 90.794 34.588C90.618 35.14 90.366 35.608 90.038 35.992C89.718 36.368 89.326 36.66 88.862 36.868C88.406 37.068 87.89 37.168 87.314 37.168C86.658 37.168 86.094 37.032 85.622 36.76C85.158 36.48 84.798 36.148 84.542 35.764L85.586 34.828C85.762 35.1 85.998 35.324 86.294 35.5C86.59 35.668 86.93 35.752 87.314 35.752C87.89 35.752 88.37 35.564 88.754 35.188C89.146 34.812 89.382 34.252 89.462 33.508C89.214 33.78 88.918 34.004 88.574 34.18C88.23 34.348 87.822 34.432 87.35 34.432C86.966 34.432 86.602 34.364 86.258 34.228C85.914 34.092 85.61 33.9 85.346 33.652C85.082 33.404 84.874 33.108 84.722 32.764C84.57 32.412 84.494 32.02 84.494 31.588C84.494 31.156 84.578 30.764 84.746 30.412C84.914 30.052 85.142 29.744 85.43 29.488C85.718 29.232 86.054 29.032 86.438 28.888C86.822 28.744 87.23 28.672 87.662 28.672ZM87.662 30.088C87.414 30.088 87.19 30.128 86.99 30.208C86.798 30.288 86.63 30.396 86.486 30.532C86.35 30.66 86.246 30.812 86.174 30.988C86.102 31.164 86.066 31.352 86.066 31.552C86.066 31.752 86.102 31.944 86.174 32.128C86.246 32.304 86.35 32.46 86.486 32.596C86.63 32.724 86.798 32.828 86.99 32.908C87.19 32.988 87.414 33.028 87.662 33.028C87.91 33.028 88.13 32.988 88.322 32.908C88.522 32.828 88.69 32.724 88.826 32.596C88.962 32.46 89.066 32.304 89.138 32.128C89.21 31.944 89.246 31.752 89.246 31.552C89.246 31.352 89.21 31.164 89.138 30.988C89.066 30.812 88.962 30.66 88.826 30.532C88.69 30.396 88.522 30.288 88.322 30.208C88.13 30.128 87.91 30.088 87.662 30.088ZM94.847 30.82H96.371V37H94.847V30.82ZM94.823 28.192H96.383V29.776H94.823V28.192ZM99.6235 36.208L97.1515 30.82H98.7835L100.428 34.516L101.952 30.82H103.596L99.9715 39.076H98.3275L99.6235 36.208ZM110.087 37H108.563V36.136C108.395 36.416 108.147 36.656 107.819 36.856C107.491 37.048 107.087 37.144 106.607 37.144C106.207 37.144 105.859 37.08 105.563 36.952C105.267 36.816 105.023 36.632 104.831 36.4C104.639 36.16 104.495 35.876 104.399 35.548C104.303 35.22 104.255 34.856 104.255 34.456V30.82H105.779V34.288C105.779 35.288 106.235 35.788 107.147 35.788C107.523 35.788 107.831 35.68 108.071 35.464C108.319 35.24 108.483 34.988 108.563 34.708V30.82H110.087V37ZM111.523 30.82H113.047V31.684C113.215 31.404 113.463 31.168 113.791 30.976C114.119 30.776 114.523 30.676 115.003 30.676C115.403 30.676 115.751 30.744 116.047 30.88C116.343 31.008 116.587 31.192 116.779 31.432C116.971 31.664 117.115 31.948 117.211 32.284C117.307 32.612 117.355 32.972 117.355 33.364V37H115.831V33.532C115.831 32.532 115.375 32.032 114.463 32.032C114.087 32.032 113.775 32.144 113.527 32.368C113.287 32.584 113.127 32.832 113.047 33.112V37H111.523V30.82Z" fill="#404040"/>
<path d="M171.771 28.672C172.331 28.672 172.823 28.772 173.247 28.972C173.671 29.172 174.023 29.452 174.303 29.812C174.591 30.172 174.807 30.6 174.951 31.096C175.095 31.592 175.167 32.132 175.167 32.716C175.167 33.412 175.079 34.036 174.903 34.588C174.727 35.14 174.475 35.608 174.147 35.992C173.827 36.368 173.435 36.66 172.971 36.868C172.515 37.068 171.999 37.168 171.423 37.168C170.767 37.168 170.203 37.032 169.731 36.76C169.267 36.48 168.907 36.148 168.651 35.764L169.695 34.828C169.871 35.1 170.107 35.324 170.403 35.5C170.699 35.668 171.039 35.752 171.423 35.752C171.999 35.752 172.479 35.564 172.863 35.188C173.255 34.812 173.491 34.252 173.571 33.508C173.323 33.78 173.027 34.004 172.683 34.18C172.339 34.348 171.931 34.432 171.459 34.432C171.075 34.432 170.711 34.364 170.367 34.228C170.023 34.092 169.719 33.9 169.455 33.652C169.191 33.404 168.983 33.108 168.831 32.764C168.679 32.412 168.603 32.02 168.603 31.588C168.603 31.156 168.687 30.764 168.855 30.412C169.023 30.052 169.251 29.744 169.539 29.488C169.827 29.232 170.163 29.032 170.547 28.888C170.931 28.744 171.339 28.672 171.771 28.672ZM171.771 30.088C171.523 30.088 171.299 30.128 171.099 30.208C170.907 30.288 170.739 30.396 170.595 30.532C170.459 30.66 170.355 30.812 170.283 30.988C170.211 31.164 170.175 31.352 170.175 31.552C170.175 31.752 170.211 31.944 170.283 32.128C170.355 32.304 170.459 32.46 170.595 32.596C170.739 32.724 170.907 32.828 171.099 32.908C171.299 32.988 171.523 33.028 171.771 33.028C172.019 33.028 172.239 32.988 172.431 32.908C172.631 32.828 172.799 32.724 172.935 32.596C173.071 32.46 173.175 32.304 173.247 32.128C173.319 31.944 173.355 31.752 173.355 31.552C173.355 31.352 173.319 31.164 173.247 30.988C173.175 30.812 173.071 30.66 172.935 30.532C172.799 30.396 172.631 30.288 172.431 30.208C172.239 30.128 172.019 30.088 171.771 30.088ZM178.956 30.82H180.48V37H178.956V30.82ZM178.932 28.192H180.492V29.776H178.932V28.192ZM183.733 36.208L181.261 30.82H182.893L184.537 34.516L186.061 30.82H187.705L184.081 39.076H182.437L183.733 36.208ZM194.197 37H192.673V36.136C192.505 36.416 192.257 36.656 191.929 36.856C191.601 37.048 191.197 37.144 190.717 37.144C190.317 37.144 189.969 37.08 189.673 36.952C189.377 36.816 189.133 36.632 188.941 36.4C188.749 36.16 188.605 35.876 188.509 35.548C188.413 35.22 188.365 34.856 188.365 34.456V30.82H189.889V34.288C189.889 35.288 190.345 35.788 191.257 35.788C191.633 35.788 191.941 35.68 192.181 35.464C192.429 35.24 192.593 34.988 192.673 34.708V30.82H194.197V37ZM195.632 28.48H197.156V37H195.632V28.48Z" fill="#404040"/>
<path d="M244.662 28.672C245.222 28.672 245.714 28.772 246.138 28.972C246.562 29.172 246.914 29.452 247.194 29.812C247.482 30.172 247.698 30.6 247.842 31.096C247.986 31.592 248.058 32.132 248.058 32.716C248.058 33.412 247.97 34.036 247.794 34.588C247.618 35.14 247.366 35.608 247.038 35.992C246.718 36.368 246.326 36.66 245.862 36.868C245.406 37.068 244.89 37.168 244.314 37.168C243.658 37.168 243.094 37.032 242.622 36.76C242.158 36.48 241.798 36.148 241.542 35.764L242.586 34.828C242.762 35.1 242.998 35.324 243.294 35.5C243.59 35.668 243.93 35.752 244.314 35.752C244.89 35.752 245.37 35.564 245.754 35.188C246.146 34.812 246.382 34.252 246.462 33.508C246.214 33.78 245.918 34.004 245.574 34.18C245.23 34.348 244.822 34.432 244.35 34.432C243.966 34.432 243.602 34.364 243.258 34.228C242.914 34.092 242.61 33.9 242.346 33.652C242.082 33.404 241.874 33.108 241.722 32.764C241.57 32.412 241.494 32.02 241.494 31.588C241.494 31.156 241.578 30.764 241.746 30.412C241.914 30.052 242.142 29.744 242.43 29.488C242.718 29.232 243.054 29.032 243.438 28.888C243.822 28.744 244.23 28.672 244.662 28.672ZM244.662 30.088C244.414 30.088 244.19 30.128 243.99 30.208C243.798 30.288 243.63 30.396 243.486 30.532C243.35 30.66 243.246 30.812 243.174 30.988C243.102 31.164 243.066 31.352 243.066 31.552C243.066 31.752 243.102 31.944 243.174 32.128C243.246 32.304 243.35 32.46 243.486 32.596C243.63 32.724 243.798 32.828 243.99 32.908C244.19 32.988 244.414 33.028 244.662 33.028C244.91 33.028 245.13 32.988 245.322 32.908C245.522 32.828 245.69 32.724 245.826 32.596C245.962 32.46 246.066 32.304 246.138 32.128C246.21 31.944 246.246 31.752 246.246 31.552C246.246 31.352 246.21 31.164 246.138 30.988C246.066 30.812 245.962 30.66 245.826 30.532C245.69 30.396 245.522 30.288 245.322 30.208C245.13 30.128 244.91 30.088 244.662 30.088ZM256.419 36.292C256.187 36.548 255.907 36.756 255.579 36.916C255.259 37.068 254.895 37.144 254.487 37.144C254.055 37.144 253.655 37.068 253.287 36.916C252.927 36.764 252.615 36.548 252.351 36.268C252.087 35.98 251.879 35.64 251.727 35.248C251.583 34.848 251.511 34.404 251.511 33.916C251.511 33.428 251.583 32.984 251.727 32.584C251.879 32.184 252.087 31.844 252.351 31.564C252.615 31.284 252.927 31.068 253.287 30.916C253.655 30.756 254.055 30.676 254.487 30.676C254.895 30.676 255.259 30.756 255.579 30.916C255.907 31.076 256.187 31.284 256.419 31.54V30.82H257.943V37H256.419V36.292ZM254.823 35.788C255.167 35.788 255.483 35.708 255.771 35.548C256.067 35.38 256.283 35.152 256.419 34.864V32.968C256.283 32.672 256.067 32.444 255.771 32.284C255.483 32.116 255.167 32.032 254.823 32.032C254.575 32.032 254.343 32.076 254.127 32.164C253.911 32.244 253.723 32.364 253.563 32.524C253.411 32.684 253.287 32.884 253.191 33.124C253.103 33.356 253.059 33.62 253.059 33.916C253.059 34.212 253.103 34.476 253.191 34.708C253.287 34.94 253.411 35.136 253.563 35.296C253.723 35.456 253.911 35.58 254.127 35.668C254.343 35.748 254.575 35.788 254.823 35.788ZM258.722 30.82H260.354L261.998 35.116L263.642 30.82H265.274L262.754 37H261.23L258.722 30.82ZM271.923 39.076H270.399V36.28C270.167 36.536 269.887 36.744 269.559 36.904C269.231 37.064 268.863 37.144 268.455 37.144C268.023 37.144 267.627 37.068 267.267 36.916C266.907 36.764 266.595 36.548 266.331 36.268C266.067 35.98 265.859 35.64 265.707 35.248C265.563 34.848 265.491 34.404 265.491 33.916C265.491 33.428 265.563 32.984 265.707 32.584C265.859 32.184 266.067 31.844 266.331 31.564C266.595 31.284 266.907 31.068 267.267 30.916C267.627 30.756 268.023 30.676 268.455 30.676C268.863 30.676 269.231 30.76 269.559 30.928C269.887 31.088 270.167 31.296 270.399 31.552V30.82H271.923V39.076ZM268.803 35.788C269.147 35.788 269.463 35.708 269.751 35.548C270.047 35.38 270.263 35.152 270.399 34.864V32.968C270.263 32.672 270.047 32.444 269.751 32.284C269.463 32.116 269.147 32.032 268.803 32.032C268.555 32.032 268.323 32.076 268.107 32.164C267.891 32.244 267.703 32.364 267.543 32.524C267.391 32.684 267.267 32.884 267.171 33.124C267.083 33.356 267.039 33.62 267.039 33.916C267.039 34.212 267.083 34.476 267.171 34.708C267.267 34.94 267.391 35.136 267.543 35.296C267.703 35.456 267.891 35.58 268.107 35.668C268.323 35.748 268.555 35.788 268.803 35.788ZM279.123 37H277.599V36.136C277.431 36.416 277.183 36.656 276.855 36.856C276.527 37.048 276.123 37.144 275.643 37.144C275.243 37.144 274.895 37.08 274.599 36.952C274.303 36.816 274.059 36.632 273.867 36.4C273.675 36.16 273.531 35.876 273.435 35.548C273.339 35.22 273.291 34.856 273.291 34.456V30.82H274.815V34.288C274.815 35.288 275.271 35.788 276.183 35.788C276.559 35.788 276.867 35.68 277.107 35.464C277.355 35.24 277.519 34.988 277.599 34.708V30.82H279.123V37ZM282.634 37.168C282.058 37.168 281.55 37.052 281.11 36.82C280.67 36.58 280.31 36.292 280.03 35.956L280.858 34.996C281.066 35.252 281.33 35.472 281.65 35.656C281.978 35.832 282.326 35.92 282.694 35.92C283.03 35.92 283.302 35.86 283.51 35.74C283.718 35.612 283.822 35.432 283.822 35.2C283.822 34.992 283.734 34.84 283.558 34.744C283.39 34.648 283.158 34.576 282.862 34.528L282.31 34.444C281.734 34.348 281.282 34.144 280.954 33.832C280.626 33.52 280.462 33.112 280.462 32.608C280.462 32.344 280.518 32.096 280.63 31.864C280.742 31.624 280.902 31.416 281.11 31.24C281.318 31.064 281.574 30.928 281.878 30.832C282.19 30.728 282.538 30.676 282.922 30.676C283.41 30.676 283.834 30.768 284.194 30.952C284.562 31.128 284.862 31.348 285.094 31.612L284.29 32.584C284.09 32.376 283.87 32.216 283.63 32.104C283.398 31.984 283.142 31.924 282.862 31.924C282.574 31.924 282.354 31.984 282.202 32.104C282.058 32.216 281.986 32.356 281.986 32.524C281.986 32.82 282.214 33.004 282.67 33.076L283.222 33.16C284.638 33.376 285.346 34.028 285.346 35.116C285.346 35.396 285.286 35.66 285.166 35.908C285.046 36.156 284.87 36.376 284.638 36.568C284.414 36.752 284.13 36.896 283.786 37C283.45 37.112 283.066 37.168 282.634 37.168ZM289.012 37.072C288.26 37.072 287.692 36.88 287.308 36.496C286.932 36.104 286.744 35.484 286.744 34.636V32.044H285.712V30.82H286.792V29.248H288.268V30.82H289.696V32.044H288.268V34.708C288.268 35.108 288.36 35.388 288.544 35.548C288.736 35.7 289.024 35.776 289.408 35.776H289.696V37C289.488 37.048 289.26 37.072 289.012 37.072Z" fill="#404040"/>
<path d="M18.5 10H267.5" stroke="#C8C8C8" stroke-linecap="round" stroke-linejoin="round" stroke-dasharray="3 3"/>
<circle cx="17.5" cy="9.5" r="9.5" fill="#219653"/>
<path d="M13 9.31579L16.1765 13L22 6" stroke="#FFFDFD" stroke-width="2" stroke-linecap="round" stroke-linejoin="round"/>
<circle cx="100.5" cy="9.5" r="9.5" fill="#219653"/>
<path d="M96 9.31579L99.1765 13L105 6" stroke="#FFFDFD" stroke-width="2" stroke-linecap="round" stroke-linejoin="round"/>
<circle cx="183.5" cy="9.5" r="9.5" fill="#219653"/>
<path d="M179 9.31579L182.176 13L188 6" stroke="#FFFDFD" stroke-width="2" stroke-linecap="round" stroke-linejoin="round"/>
<circle cx="266.5" cy="9.5" r="9.5" fill="#F34040"/>
<path d="M265.168 5H267.002L266.652 11.3H265.532L265.168 5ZM265 12.378H267.156V14.52H265V12.378Z" fill="white"/>
<circle cx="183.5" cy="9.5" r="9.5" fill="#F34040"/>
<path d="M182.168 5H184.002L183.652 11.3H182.532L182.168 5ZM182 12.378H184.156V14.52H182V12.378Z" fill="white"/>
</svg>
