<svg width="21" height="22" viewBox="0 0 21 22" fill="none" xmlns="http://www.w3.org/2000/svg">
<path d="M10.0001 11.0002C12.5314 11.0002 14.5834 8.94813 14.5834 6.41683C14.5834 3.88552 12.5314 1.8335 10.0001 1.8335C7.46878 1.8335 5.41675 3.88552 5.41675 6.41683C5.41675 8.94813 7.46878 11.0002 10.0001 11.0002Z" stroke="white" stroke-width="2"/>
<path d="M14.5833 20.1668H3.82714C3.56716 20.1669 3.31014 20.1116 3.07313 20.0048C2.83613 19.8979 2.62457 19.7419 2.45249 19.547C2.2804 19.3521 2.15174 19.1228 2.07503 18.8744C1.99832 18.626 1.97532 18.3641 2.00756 18.1062L2.36506 15.2425C2.4482 14.5772 2.77152 13.9652 3.27424 13.5216C3.77695 13.0779 4.42442 12.8332 5.09489 12.8335H5.41664" stroke="white" stroke-width="2" stroke-linecap="round" stroke-linejoin="round"/>
<path d="M16.4167 11.917V17.417" stroke="white" stroke-width="2" stroke-linecap="round" stroke-linejoin="round"/>
<path d="M13.6667 14.667H19.1667" stroke="white" stroke-width="2" stroke-linecap="round" stroke-linejoin="round"/>
</svg>
